<svg version="1.2" xmlns="http://www.w3.org/2000/svg" viewBox="0 0 317.933 319" width="318" height="319">
	<style>
		tspan { white-space:pre } 
		.s0 { fill: #0b45bf } 
		.t1 { font-size: 24px;fill: #ffffff;font-weight: 700;font-family: "SourceSansPro-Bold", "Source Sans Pro" } 
		.s2 { fill: #ffffff } 
	</style>
	<g id="BLUE">
		<path id="BLUE BG" fill-rule="evenodd" class="s0" d="m24.33 9h268.64c10.68 0 19.33 8.65 19.33 19.33v261.94c0 10.68-8.65 19.33-19.33 19.33h-268.64c-10.68 0-19.33-8.65-19.33-19.33v-261.94c0-10.68 8.65-19.33 19.33-19.33z"/>
		<text id="Planner
" style="transform: matrix(3.448,0,0,3.448,15.033,266.819)">
			<tspan x="0" y="0" class="t1">P</tspan><tspan  y="0" class="t1">l</tspan><tspan  y="0" class="t1">a</tspan><tspan  y="0" class="t1">n</tspan><tspan  y="0" class="t1">n</tspan><tspan  y="0" class="t1">e</tspan><tspan  y="0" class="t1">r
</tspan>
		</text>
		<path id="SM WHITE" class="s2" d="m50.55 86.93c-2.59 11.18 6.71 23 18 23.02q25.85 0.04 51.71 0.02c22.62-0.01 43.23 16.09 48.74 37.96 5.96 23.71-6.37 46.11-26.85 55.99-6.94 3.34-14.24 5.18-21.89 5.19-31.9 0.06-63.79 0-95.69-0.03-4.51 0-5.22-0.89-5.01-5.46q0.47-10.26 0.05-20.52c-0.13-3.41 0.44-4.13 3.88-4.13 31.57 0 63.15 0.07 94.72-0.05 8.27-0.03 15.09-3.32 19.09-10.93 6.12-11.65-2.48-26.68-15.62-27.44-12.71-0.73-25.43-0.21-38.15-0.27-8.18-0.03-16.47 1.04-24.54-0.88-19.48-4.65-32.2-16.76-37.68-35.92-7.81-27.31 9.53-55.62 37.33-61.52 6.58-1.39 13.3-1.08 19.98-1.08 14.65 0 29.31 0.04 43.97 0 9.85-0.03 19.13 2.01 27.85 6.71 4.7 2.54 8.59 5.95 12.05 9.92q16.9 19.39 33.79 38.79c2.19 2.51 3.47 2.51 5.64 0.05 12.33-13.92 24.52-27.97 37.08-41.69 6.83-7.45 15.11-12.59 25.6-13.63 13.96-1.39 28.54 7.7 33.26 21.06 1.68 4.75 2.5 9.61 2.49 14.66-0.03 42.28-0.02 84.57-0.02 126.85 0 0.89 0.01 1.78-0.08 2.66-0.17 1.57-1.01 2.5-2.68 2.5q-12.93 0-25.86-0.01c-2.25 0-2.54-1.52-2.54-3.29q0-12.8-0.02-25.61 0-50.62-0.01-101.24c0-0.72 0.02-1.46-0.11-2.17-0.59-3.09-3.33-4.28-5.98-2.58-1.65 1.05-2.87 2.59-4.15 4.02-17.03 19.01-34.03 38.04-51.07 57.04q-2.57 2.89-5.41 5.52c-2.2 2.04-3.83 2.05-6.24 0.24-2.93-2.2-5.12-5.11-7.52-7.82-15.75-17.78-31.56-35.5-47.18-53.4-4.75-5.43-10.59-7.55-17.53-7.55q-26.94 0-53.88-0.04c-10.38-0.02-16.75 4.82-19.52 15.06z"/>
	</g>
</svg>